<svg width="30" height="31" viewBox="0 0 30 31" fill="none" xmlns="http://www.w3.org/2000/svg">
<path d="M16.1022 27.4578L14.7529 26.1085L11.5327 22.8883L7.62114 18.9767L4.25842 15.614C3.71262 15.0682 3.17592 14.5164 2.62102 13.9766L2.59676 13.9524V16.0961L3.9461 14.7468L7.16631 11.5266L11.0779 7.61505L14.4406 4.25233C14.9864 3.70653 15.5382 3.16679 16.078 2.61493L16.1022 2.59067C16.3782 2.31474 16.5449 1.90843 16.5449 1.51727C16.5449 1.14431 16.3812 0.701606 16.1022 0.443868C15.8142 0.180065 15.4352 -0.0170287 15.0288 0.00116456C14.6256 0.0193578 14.2465 0.155807 13.9554 0.443868L12.6061 1.7932L9.38589 5.01341L5.47433 8.92496L2.11161 12.2877C1.56581 12.8335 1.01395 13.3732 0.474217 13.9251L0.449959 13.9493C-0.129194 14.5285 -0.129194 15.514 0.449959 16.0931C0.901758 16.5479 1.35356 16.9967 1.80233 17.4485L5.02253 20.6687L8.93409 24.5803L12.2968 27.943C12.8426 28.4888 13.3823 29.0407 13.9342 29.5804L13.9585 29.6046C14.2344 29.8806 14.6407 30.0474 15.0319 30.0474C15.4048 30.0474 15.8475 29.8836 16.1053 29.6046C16.3691 29.3166 16.5662 28.9376 16.548 28.5312C16.5267 28.128 16.3933 27.7489 16.1022 27.4578Z" fill="white"/>
<path d="M1.51727 16.5419H27.3881C27.7368 16.5419 28.0885 16.5449 28.4372 16.5419H28.4827C28.8709 16.5419 29.2802 16.3721 29.5561 16.0992C29.8199 15.8354 30.017 15.4048 29.9988 15.0258C29.9806 14.6346 29.8533 14.2283 29.5561 13.9524C29.259 13.6795 28.8951 13.5096 28.4827 13.5096H2.6119C2.26319 13.5096 1.91146 13.5066 1.56275 13.5096H1.51727C1.12915 13.5096 0.719799 13.6795 0.443868 13.9524C0.180065 14.2162 -0.0170287 14.6467 0.00116456 15.0258C0.0193578 15.4169 0.146711 15.8232 0.443868 16.0992C0.744056 16.369 1.10792 16.5419 1.51727 16.5419Z" fill="white"/>
</svg>
